<?xml version="1.0" encoding="UTF-8" standalone="no"?>
<svg
   xmlns:dc="http://purl.org/dc/elements/1.1/"
   xmlns:cc="http://creativecommons.org/ns#"
   xmlns:rdf="http://www.w3.org/1999/02/22-rdf-syntax-ns#"
   xmlns:svg="http://www.w3.org/2000/svg"
   xmlns="http://www.w3.org/2000/svg"
   xmlns:sodipodi="http://sodipodi.sourceforge.net/DTD/sodipodi-0.dtd"
   xmlns:inkscape="http://www.inkscape.org/namespaces/inkscape"
   width="198.34113"
   viewBox="0 0 198.34113 198.81847"
   height="198.81847"
   version="1.0"
   id="svg112"
   sodipodi:docname="ResMap_logo.svg"
   inkscape:version="0.92.4 (5da689c313, 2019-01-14)">
  <metadata
     id="metadata116">
    <rdf:RDF>
      <cc:Work
         rdf:about="">
        <dc:format>image/svg+xml</dc:format>
        <dc:type
           rdf:resource="http://purl.org/dc/dcmitype/StillImage" />
      </cc:Work>
    </rdf:RDF>
  </metadata>
  <sodipodi:namedview
     pagecolor="#ffffff"
     bordercolor="#666666"
     borderopacity="1"
     objecttolerance="10"
     gridtolerance="10"
     guidetolerance="10"
     inkscape:pageopacity="0"
     inkscape:pageshadow="2"
     inkscape:window-width="1920"
     inkscape:window-height="1001"
     id="namedview114"
     showgrid="false"
     inkscape:zoom="0.62933333"
     inkscape:cx="98.30125"
     inkscape:cy="97.673125"
     inkscape:window-x="-9"
     inkscape:window-y="-9"
     inkscape:window-maximized="1"
     inkscape:current-layer="svg112" />
  <defs
     id="defs14">
    <clipPath
       id="a">
      <path
         d="M 129.54297,124 H 157 v 29 h -27.45703 z m 0,0"
         id="path2"
         inkscape:connector-curvature="0" />
    </clipPath>
    <clipPath
       id="b">
      <path
         d="m 196,86.015625 h 28 V 114 h -28 z m 0,0"
         id="path5"
         inkscape:connector-curvature="0" />
    </clipPath>
    <clipPath
       id="c">
      <path
         d="m 196,124 h 49.79297 v 67 H 196 Z m 0,0"
         id="path8"
         inkscape:connector-curvature="0" />
    </clipPath>
    <clipPath
       id="d">
      <path
         d="m 151,86.015625 h 51 V 191 h -51 z m 0,0"
         id="path11"
         inkscape:connector-curvature="0" />
    </clipPath>
  </defs>
  <g
     clip-path="url(#a)"
     id="g18"
     transform="translate(-89.19875,-86.354656)">
    <path
       d="m 129.54297,138.51562 c 0,-7.55468 6.125,-13.66015 13.66015,-13.66015 7.55469,0 13.66407,6.125 13.66407,13.66015 0,7.55469 -6.12891,13.66407 -13.66407,13.66407 -7.55468,0 -13.66015,-6.12891 -13.66015,-13.66407 z m 0,0"
       id="path16"
       inkscape:connector-curvature="0"
       style="fill:#4d4d4d;fill-rule:evenodd" />
  </g>
  <g
     clip-path="url(#b)"
     id="g22"
     transform="translate(-89.19875,-86.354656)">
    <path
       d="m 203.05859,111.85156 c -6.53906,-3.77734 -8.77734,-12.121091 -5,-18.660154 3.77735,-6.542968 12.1211,-8.777344 18.66016,-5 6.53906,3.777344 8.77734,12.121094 5,18.660154 -3.77734,6.53907 -12.12109,8.77735 -18.66016,5 z m 0,0"
       id="path20"
       inkscape:connector-curvature="0"
       style="fill:#4d4d4d;fill-rule:evenodd" />
  </g>
  <g
     clip-path="url(#c)"
     id="g26"
     transform="translate(-89.19875,-86.354656)">
    <path
       d="m 230.02344,152.02734 -9.48828,16.42578 c 0.43359,0.54297 0.82812,1.125 1.18359,1.7461 3.77734,6.53906 1.53906,14.88281 -5,18.66015 -6.53906,3.77735 -14.88281,1.54297 -18.66016,-4.99609 -3.77734,-6.54297 -1.53906,-14.88672 5,-18.66406 2.81641,-1.61328 5.95703,-2.1211 8.94532,-1.67188 l 9.48828,-16.42187 c -1.89844,-2.35156 -3.02344,-5.32031 -3.02344,-8.57031 0,-7.55469 6.125,-13.66016 13.66016,-13.66016 7.55468,0 13.66406,6.125 13.66406,13.66016 0,7.55468 -6.12891,13.66015 -13.66406,13.66015 -0.71485,0 -1.42579,-0.0547 -2.10547,-0.16797 z m 0,0"
       id="path24"
       inkscape:connector-curvature="0"
       style="fill:#4d4d4d;fill-rule:evenodd" />
  </g>
  <g
     clip-path="url(#d)"
     id="g30"
     transform="translate(-89.19875,-86.354656)">
    <path
       d="m 167.53906,113.52344 c -5.41015,0.84375 -11.03125,-1.63672 -13.9414,-6.67188 -3.77735,-6.53906 -1.54297,-14.88281 4.99609,-18.660154 6.53906,-3.777344 14.88672,-1.542968 18.66016,5 2.91406,5.035156 2.25781,11.140624 -1.1836,15.406254 l 9.49219,16.42578 c 0.67578,-0.11328 1.39062,-0.16797 2.10547,-0.16797 7.55469,0 13.66015,6.125 13.66015,13.66015 0,7.55469 -6.125,13.66407 -13.66015,13.66407 -0.71485,0 -1.41016,-0.0586 -2.08594,-0.17188 l -9.49219,16.44531 c 3.44141,4.26563 4.09766,10.3711 1.1836,15.39063 -3.77735,6.53906 -12.1211,8.77344 -18.66016,4.99609 -6.53906,-3.77734 -8.77734,-12.12109 -5,-18.66015 2.89453,-5.03516 8.51563,-7.51563 13.92578,-6.67188 l 9.49219,-16.4414 c -1.87891,-2.34766 -3.02734,-5.31641 -3.02734,-8.57032 0,-3.25 1.1289,-6.21875 3.02734,-8.5664 l -9.49219,-16.42578 z m 0,0"
       id="path28"
       inkscape:connector-curvature="0"
       style="fill:#246fb5;fill-rule:evenodd" />
  </g>
  <g
     id="g38"
     style="fill:#246fb5"
     transform="translate(-89.19875,-86.354656)">
    <g
       id="g36">
      <g
         id="g34">
        <path
           d="M 24.875,0 C 24.300781,0 23.894531,-0.269531 23.65625,-0.8125 L 16.9375,-15.890625 C 16.851562,-16.085938 16.695312,-16.1875 16.46875,-16.1875 H 12.875 c -0.273438,0 -0.40625,0.136719 -0.40625,0.40625 v 14.734375 c 0,0.3125 -0.101562,0.570313 -0.296875,0.765625 C 11.984375,-0.09375 11.734375,0 11.421875,0 H 3.890625 C 3.578125,0 3.320312,-0.09375 3.125,-0.28125 2.9375,-0.476562 2.84375,-0.734375 2.84375,-1.046875 V -39.5625 c 0,-0.300781 0.09375,-0.546875 0.28125,-0.734375 0.195312,-0.195313 0.453125,-0.296875 0.765625,-0.296875 h 16.875 c 2.550781,0 4.789063,0.523438 6.71875,1.5625 1.9375,1.042969 3.4375,2.523438 4.5,4.4375 1.0625,1.917969 1.59375,4.109375 1.59375,6.578125 0,2.554687 -0.632813,4.777344 -1.890625,6.671875 -1.25,1.898438 -2.996094,3.273438 -5.234375,4.125 -0.273437,0.117188 -0.351563,0.308594 -0.234375,0.578125 L 33.640625,-1.21875 33.75,-0.75 c 0,0.5 -0.308594,0.75 -0.921875,0.75 z m -12,-32.359375 c -0.273438,0 -0.40625,0.136719 -0.40625,0.40625 v 8 c 0,0.273437 0.132812,0.40625 0.40625,0.40625 h 6.328125 c 1.425781,0 2.582031,-0.394531 3.46875,-1.1875 0.894531,-0.789063 1.34375,-1.84375 1.34375,-3.15625 0,-1.351563 -0.449219,-2.4375 -1.34375,-3.25 -0.886719,-0.8125 -2.042969,-1.21875 -3.46875,-1.21875 z m 0,0"
           transform="translate(86.355,253.757)"
           id="path32"
           inkscape:connector-curvature="0" />
      </g>
    </g>
  </g>
  <g
     id="g46"
     style="fill:#246fb5"
     transform="translate(-89.19875,-86.354656)">
    <g
       id="g44">
      <g
         id="g42">
        <path
           d="m 17.515625,-7.71875 c 1.195313,0 2.304687,-0.179688 3.328125,-0.546875 C 21.875,-8.628906 22.738281,-9.125 23.4375,-9.75 c 0.226562,-0.269531 0.476562,-0.40625 0.75,-0.40625 0.226562,0 0.457031,0.136719 0.6875,0.40625 l 3.609375,4.296875 c 0.226563,0.273437 0.34375,0.523437 0.34375,0.75 0,0.273437 -0.117187,0.527344 -0.34375,0.765625 -1.324219,1.386719 -2.992187,2.46875 -5,3.25 -2.011719,0.7695312 -4.15625,1.15625 -6.4375,1.15625 -2.625,0 -4.953125,-0.47265625 -6.984375,-1.421875 C 8.03125,-1.898438 6.359375,-3.226562 5.046875,-4.9375 c -2.125,-2.695312 -3.1875,-6.132812 -3.1875,-10.3125 0,-1.851562 0.210937,-3.59375 0.640625,-5.21875 0.84375,-3.019531 2.5,-5.445312 4.96875,-7.28125 2.476562,-1.84375 5.382812,-2.765625 8.71875,-2.765625 3.863281,0 6.984375,1.203125 9.359375,3.609375 2.375,2.398438 3.929687,5.742188 4.671875,10.03125 0.15625,1.085938 0.269531,2.261719 0.34375,3.53125 0,0.699219 -0.351562,1.046875 -1.046875,1.046875 H 12 c -0.117188,0 -0.21875,0.04297 -0.3125,0.125 -0.09375,0.07422 -0.125,0.1875 -0.09375,0.34375 l 0.359375,1.15625 c 0.382813,0.929687 1.054687,1.652344 2.015625,2.171875 0.96875,0.523438 2.148438,0.78125 3.546875,0.78125 z m -1.5,-14.5 c -1.980469,0 -3.320313,0.949219 -4.015625,2.84375 -0.148438,0.386719 -0.242188,0.679688 -0.28125,0.875 v 0.109375 c 0,0.242187 0.132812,0.359375 0.40625,0.359375 h 7.9375 c 0.15625,0 0.257812,-0.04687 0.3125,-0.140625 0.0625,-0.101563 0.07813,-0.210937 0.04687,-0.328125 l -0.23437,-0.75 c -0.3125,-0.925781 -0.820312,-1.648438 -1.515625,-2.171875 -0.699219,-0.53125 -1.585937,-0.796875 -2.65625,-0.796875 z m 0,0"
           transform="translate(121.964,253.757)"
           id="path40"
           inkscape:connector-curvature="0" />
      </g>
    </g>
  </g>
  <g
     id="g54"
     style="fill:#246fb5"
     transform="translate(-89.19875,-86.354656)">
    <g
       id="g52">
      <g
         id="g50">
        <path
           d="m 15.203125,0.46875 c -2.75,0 -5.140625,-0.375 -7.171875,-1.125 C 6,-1.414062 4.429688,-2.484375 3.328125,-3.859375 2.234375,-5.234375 1.6875,-6.804688 1.6875,-8.578125 V -8.875 c 0,-0.3125 0.09375,-0.5625 0.28125,-0.75 0.195312,-0.195312 0.445312,-0.296875 0.75,-0.296875 h 7.140625 c 0.695313,0 1.046875,0.121094 1.046875,0.359375 v 0.34375 c 0,0.730469 0.394531,1.339844 1.1875,1.828125 0.789062,0.480469 1.804688,0.71875 3.046875,0.71875 1.082031,0 1.953125,-0.179687 2.609375,-0.546875 0.65625,-0.363281 0.984375,-0.859375 0.984375,-1.484375 0,-0.613281 -0.351563,-1.066406 -1.046875,-1.359375 -0.699219,-0.289062 -1.796875,-0.570312 -3.296875,-0.84375 -2.4375,-0.457031 -4.414063,-1.019531 -5.921875,-1.6875 -1.9375,-0.800781 -3.496094,-1.820312 -4.671875,-3.0625 -1.179687,-1.238281 -1.765625,-2.898438 -1.765625,-4.984375 0,-3.019531 1.164062,-5.410156 3.5,-7.171875 2.34375,-1.757812 5.429688,-2.640625 9.265625,-2.640625 2.582031,0 4.847656,0.417969 6.796875,1.25 1.957031,0.835937 3.476562,2.007813 4.5625,3.515625 1.082031,1.5 1.625,3.242188 1.625,5.21875 0,0.1875 -0.101562,0.351562 -0.296875,0.484375 -0.1875,0.136719 -0.4375,0.203125 -0.75,0.203125 H 19.84375 c -0.699219,0 -1.046875,-0.113281 -1.046875,-0.34375 v -0.34375 c 0,-0.738281 -0.351563,-1.335938 -1.046875,-1.796875 -0.699219,-0.46875 -1.648438,-0.703125 -2.84375,-0.703125 -1.085938,0 -1.964844,0.1875 -2.640625,0.5625 -0.679687,0.367188 -1.015625,0.875 -1.015625,1.53125 0,0.65625 0.363281,1.132812 1.09375,1.421875 0.738281,0.28125 1.976562,0.601563 3.71875,0.953125 2.363281,0.460938 3.953125,0.824219 4.765625,1.09375 2.351563,0.78125 4.195313,1.828125 5.53125,3.140625 1.332031,1.3125 2,3.074219 2,5.28125 0,3.011719 -1.1875,5.339844 -3.5625,6.984375 -2.375,1.648438 -5.574219,2.46875 -9.59375,2.46875 z m 0,0"
           transform="translate(153.978,253.757)"
           id="path48"
           inkscape:connector-curvature="0" />
      </g>
    </g>
  </g>
  <g
     id="g62"
     style="fill:#246fb5"
     transform="translate(-89.19875,-86.354656)">
    <g
       id="g60">
      <g
         id="g58">
        <path
           d="M 3.9375,0 C 3.632812,0 3.382812,-0.09375 3.1875,-0.28125 3,-0.476562 2.90625,-0.734375 2.90625,-1.046875 V -39.5625 c 0,-0.300781 0.09375,-0.546875 0.28125,-0.734375 0.195312,-0.195313 0.445312,-0.296875 0.75,-0.296875 h 7.484375 c 0.539063,0 0.945313,0.230469 1.21875,0.6875 l 7.71875,12.46875 c 0.1875,0.273438 0.378906,0.273438 0.578125,0 l 7.765625,-12.46875 c 0.269531,-0.457031 0.675781,-0.6875 1.21875,-0.6875 h 7.484375 c 0.3125,0 0.5625,0.101562 0.75,0.296875 0.195312,0.1875 0.296875,0.433594 0.296875,0.734375 v 38.515625 c 0,0.3125 -0.101563,0.570313 -0.296875,0.765625 C 37.96875,-0.09375 37.71875,0 37.40625,0 H 29.875 c -0.3125,0 -0.570312,-0.09375 -0.765625,-0.28125 -0.1875,-0.195312 -0.28125,-0.453125 -0.28125,-0.765625 V -23.71875 c 0,-0.195312 -0.05859,-0.3125 -0.171875,-0.34375 -0.117188,-0.03906 -0.214844,0.03125 -0.296875,0.21875 l -4.703125,7.65625 c -0.261719,0.46875 -0.664062,0.703125 -1.203125,0.703125 H 18.90625 c -0.542969,0 -0.949219,-0.234375 -1.21875,-0.703125 l -4.703125,-7.65625 c -0.07422,-0.1875 -0.167969,-0.257812 -0.28125,-0.21875 -0.117187,0.03125 -0.171875,0.148438 -0.171875,0.34375 v 22.671875 c 0,0.3125 -0.101562,0.570313 -0.296875,0.765625 -0.1875,0.1875 -0.4375,0.28125 -0.75,0.28125 z m 0,0"
           transform="translate(183.614,253.757)"
           id="path56"
           inkscape:connector-curvature="0" />
      </g>
    </g>
  </g>
  <g
     id="g70"
     style="fill:#246fb5"
     transform="translate(-89.19875,-86.354656)">
    <g
       id="g68">
      <g
         id="g66">
        <path
           d="m 15.015625,-30.453125 c 2.550781,0 4.867187,0.4375 6.953125,1.3125 2.09375,0.867187 3.738281,2.0625 4.9375,3.59375 1.195312,1.523437 1.796875,3.214844 1.796875,5.078125 v 19.421875 c 0,0.3125 -0.101563,0.570313 -0.296875,0.765625 C 28.21875,-0.09375 27.972656,0 27.671875,0 H 20.125 c -0.3125,0 -0.570312,-0.09375 -0.765625,-0.28125 -0.1875,-0.195312 -0.28125,-0.453125 -0.28125,-0.765625 v -1.15625 c 0,-0.195313 -0.04687,-0.3125 -0.140625,-0.34375 -0.09375,-0.039063 -0.199219,0.015625 -0.3125,0.171875 -1.554688,1.898438 -4.046875,2.84375 -7.484375,2.84375 -3.0625,0 -5.5,-0.722656 -7.3125,-2.171875 -1.8125,-1.457031 -2.71875,-3.597656 -2.71875,-6.421875 0,-2.976562 1.03125,-5.273438 3.09375,-6.890625 2.070313,-1.625 5.0625,-2.4375 8.96875,-2.4375 h 5.5 c 0.269531,0 0.40625,-0.132813 0.40625,-0.40625 v -0.984375 c 0,-1.050781 -0.339844,-1.875 -1.015625,-2.46875 -0.679688,-0.601562 -1.632812,-0.90625 -2.859375,-0.90625 -0.898437,0 -1.664063,0.148438 -2.296875,0.4375 -0.636719,0.292969 -1.089844,0.6875 -1.359375,1.1875 -0.199219,0.273438 -0.386719,0.476562 -0.5625,0.609375 -0.167969,0.136719 -0.386719,0.183594 -0.65625,0.140625 l -7.78125,-0.984375 c -0.6875,-0.07031 -0.996094,-0.34375 -0.921875,-0.8125 0.1875,-1.65625 0.878906,-3.148437 2.078125,-4.484375 1.207031,-1.332031 2.785156,-2.382812 4.734375,-3.15625 1.957031,-0.78125 4.148438,-1.171875 6.578125,-1.171875 z M 14.03125,-6.4375 c 1.46875,0 2.675781,-0.375 3.625,-1.125 0.945312,-0.757812 1.421875,-1.757812 1.421875,-3 v -1.265625 c 0,-0.269531 -0.136719,-0.40625 -0.40625,-0.40625 H 15.3125 c -1.46875,0 -2.601562,0.25 -3.390625,0.75 -0.792969,0.5 -1.1875,1.257813 -1.1875,2.265625 0,0.84375 0.285156,1.523438 0.859375,2.03125 0.582031,0.5 1.394531,0.75 2.4375,0.75 z m 0,0"
           transform="translate(224.965,253.757)"
           id="path64"
           inkscape:connector-curvature="0" />
      </g>
    </g>
  </g>
  <g
     id="g78"
     style="fill:#246fb5"
     transform="translate(-89.19875,-86.354656)">
    <g
       id="g76">
      <g
         id="g74">
        <path
           d="m 30.625,-21.515625 c 0.613281,1.898437 0.921875,4.121094 0.921875,6.671875 0,2.742188 -0.40625,5.171875 -1.21875,7.296875 -0.886719,2.40625 -2.324219,4.355469 -4.3125,5.84375 -1.992187,1.480469 -4.226563,2.21875 -6.703125,2.21875 -2.9375,0 -5.140625,-0.882813 -6.609375,-2.65625 -0.117187,-0.15625 -0.226563,-0.210937 -0.328125,-0.171875 -0.09375,0.03125 -0.140625,0.148438 -0.140625,0.34375 V 9.5625 c 0,0.3125 -0.101563,0.5625 -0.296875,0.75 -0.1875,0.195312 -0.4375,0.296875 -0.75,0.296875 H 3.65625 c -0.3125,0 -0.570312,-0.101563 -0.765625,-0.296875 -0.1875,-0.1875 -0.28125,-0.4375 -0.28125,-0.75 v -38.5 c 0,-0.3125 0.09375,-0.5625 0.28125,-0.75 0.195313,-0.195312 0.453125,-0.296875 0.765625,-0.296875 h 7.53125 c 0.3125,0 0.5625,0.101563 0.75,0.296875 0.195312,0.1875 0.296875,0.4375 0.296875,0.75 v 1.390625 c 0,0.1875 0.04687,0.304687 0.140625,0.34375 0.101562,0.04297 0.210938,-0.01563 0.328125,-0.171875 1.46875,-2.050781 3.671875,-3.078125 6.609375,-3.078125 2.507812,0 4.828125,0.835937 6.953125,2.5 2.132813,1.65625 3.585937,3.804687 4.359375,6.4375 z M 20.1875,-9.96875 c 0.695312,-1.28125 1.046875,-2.960938 1.046875,-5.046875 0,-1.976563 -0.335937,-3.585937 -1,-4.828125 -0.804687,-1.425781 -1.980469,-2.140625 -3.53125,-2.140625 -1.46875,0 -2.609375,0.734375 -3.421875,2.203125 -0.65625,1.242188 -0.984375,2.828125 -0.984375,4.765625 0,2.125 0.347656,3.824219 1.046875,5.09375 0.8125,1.3125 1.929688,1.96875 3.359375,1.96875 1.507813,0 2.671875,-0.671875 3.484375,-2.015625 z m 0,0"
           transform="translate(255.993,253.757)"
           id="path72"
           inkscape:connector-curvature="0" />
      </g>
    </g>
  </g>
  <g
     id="g86"
     style="fill:#4d4d4d"
     transform="translate(-89.19875,-86.354656)">
    <g
       id="g84">
      <g
         id="g82">
        <path
           d="m 1.765625,0 c -0.210937,0 -0.3125,-0.101562 -0.3125,-0.3125 v -13.265625 c 0,-0.21875 0.101563,-0.328125 0.3125,-0.328125 H 3.4375 c 0.207031,0 0.3125,0.109375 0.3125,0.328125 v 11.46875 c 0,0.085937 0.039062,0.125 0.125,0.125 h 6.546875 c 0.21875,0 0.328125,0.105469 0.328125,0.3125 V -0.3125 C 10.75,-0.101562 10.640625,0 10.421875,0 Z m 0,0"
           transform="translate(164.014,284.97)"
           id="path80"
           inkscape:connector-curvature="0" />
      </g>
    </g>
  </g>
  <g
     id="g94"
     style="fill:#4d4d4d"
     transform="translate(-89.19875,-86.354656)">
    <g
       id="g92">
      <g
         id="g90">
        <path
           d="m 10.5,-13.90625 c 0.21875,0 0.328125,0.109375 0.328125,0.328125 v 1.359375 c 0,0.21875 -0.109375,0.328125 -0.328125,0.328125 H 6.953125 c -0.085937,0 -0.125,0.03906 -0.125,0.109375 V -0.3125 C 6.828125,-0.101562 6.722656,0 6.515625,0 H 4.84375 C 4.632812,0 4.53125,-0.101562 4.53125,-0.3125 v -11.46875 c 0,-0.07031 -0.042969,-0.109375 -0.125,-0.109375 H 1 c -0.21875,0 -0.328125,-0.109375 -0.328125,-0.328125 v -1.359375 c 0,-0.21875 0.109375,-0.328125 0.328125,-0.328125 z m 0,0"
           transform="translate(175.35,284.97)"
           id="path88"
           inkscape:connector-curvature="0" />
      </g>
    </g>
  </g>
  <g
     id="g102"
     style="fill:#4d4d4d"
     transform="translate(-89.19875,-86.354656)">
    <g
       id="g100">
      <g
         id="g98">
        <path
           d="M 6.15625,0.203125 C 5.164062,0.203125 4.285156,0 3.515625,-0.40625 2.742188,-0.8125 2.148438,-1.382812 1.734375,-2.125 c -0.417969,-0.738281 -0.625,-1.59375 -0.625,-2.5625 v -4.53125 c 0,-0.945312 0.210937,-1.785156 0.640625,-2.515625 0.425781,-0.738281 1.019531,-1.3125 1.78125,-1.71875 0.757812,-0.40625 1.632812,-0.609375 2.625,-0.609375 1.007812,0 1.894531,0.203125 2.65625,0.609375 0.757812,0.40625 1.347656,0.980469 1.765625,1.71875 0.425781,0.730469 0.640625,1.570313 0.640625,2.515625 v 4.53125 c 0,0.96875 -0.214844,1.824219 -0.640625,2.5625 C 10.160156,-1.382812 9.570312,-0.8125 8.8125,-0.40625 8.050781,0 7.164062,0.203125 6.15625,0.203125 Z m 0,-1.984375 c 0.832031,0 1.5,-0.257812 2,-0.78125 0.507812,-0.519531 0.765625,-1.203125 0.765625,-2.046875 v -4.625 c 0,-0.863281 -0.257813,-1.550781 -0.765625,-2.0625 -0.5,-0.519531 -1.167969,-0.78125 -2,-0.78125 -0.824219,0 -1.484375,0.261719 -1.984375,0.78125 -0.5,0.511719 -0.75,1.199219 -0.75,2.0625 v 4.625 c 0,0.84375 0.25,1.527344 0.75,2.046875 0.5,0.523438 1.160156,0.78125 1.984375,0.78125 z m 0,0"
           transform="translate(186.843,284.97)"
           id="path96"
           inkscape:connector-curvature="0" />
      </g>
    </g>
  </g>
  <g
     id="g110"
     style="fill:#4d4d4d"
     transform="translate(-89.19875,-86.354656)">
    <g
       id="g108">
      <g
         id="g106">
        <path
           d="m 7.03125,-13.921875 c 0.832031,0 1.566406,0.171875 2.203125,0.515625 0.632813,0.34375 1.125,0.835938 1.46875,1.46875 0.351563,0.625 0.53125,1.351562 0.53125,2.171875 0,0.804687 -0.179687,1.515625 -0.53125,2.140625 C 10.347656,-7 9.84375,-6.519531 9.1875,-6.1875 c -0.65625,0.335938 -1.417969,0.5 -2.28125,0.5 H 3.75 c -0.074219,0 -0.109375,0.042969 -0.109375,0.125 v 5.25 C 3.640625,-0.101562 3.53125,0 3.3125,0 H 1.640625 c -0.210937,0 -0.3125,-0.101562 -0.3125,-0.3125 v -13.296875 c 0,-0.207031 0.101563,-0.3125 0.3125,-0.3125 z m -0.34375,6.375 c 0.675781,0 1.21875,-0.195313 1.625,-0.59375 0.414062,-0.394531 0.625,-0.921875 0.625,-1.578125 0,-0.65625 -0.210938,-1.1875 -0.625,-1.59375 -0.40625,-0.414062 -0.949219,-0.625 -1.625,-0.625 H 3.75 c -0.074219,0 -0.109375,0.04297 -0.109375,0.125 v 4.140625 c 0,0.085937 0.035156,0.125 0.109375,0.125 z m 0,0"
           transform="translate(199.171,284.97)"
           id="path104"
           inkscape:connector-curvature="0" />
      </g>
    </g>
  </g>
</svg>
